<svg id="visual" viewBox="0 0 900 600" width="900" height="600" xmlns="http://www.w3.org/2000/svg" xmlns:xlink="http://www.w3.org/1999/xlink" version="1.1"><rect x="0" y="0" width="900" height="600" fill="#001220"></rect><defs><linearGradient id="grad1_0" x1="33.3%" y1="0%" x2="100%" y2="100%"><stop offset="20%" stop-color="#001220" stop-opacity="1"></stop><stop offset="80%" stop-color="#001220" stop-opacity="1"></stop></linearGradient></defs><defs><linearGradient id="grad2_0" x1="0%" y1="0%" x2="66.7%" y2="100%"><stop offset="20%" stop-color="#001220" stop-opacity="1"></stop><stop offset="80%" stop-color="#001220" stop-opacity="1"></stop></linearGradient></defs><g transform="translate(900, 0)"><path d="M0 216.3C-25.4 207.6 -50.8 198.9 -78.8 190.3C-106.9 181.7 -137.6 173.3 -153 153C-168.4 132.7 -168.5 100.6 -176.5 73.1C-184.5 45.6 -200.4 22.8 -216.3 0L0 0Z" fill="#0066FF"></path></g><g transform="translate(0, 600)"><path d="M0 -216.3C30.7 -215.5 61.5 -214.7 82.8 -199.9C104.1 -185 116 -156.2 135.8 -135.8C155.5 -115.3 183 -103.1 197.7 -81.9C212.4 -60.7 214.4 -30.3 216.3 0L0 0Z" fill="#0066FF"></path></g></svg>